<?xml version="1.0" encoding="UTF-8" standalone="no"?>
<!DOCTYPE svg PUBLIC "-//W3C//DTD SVG 1.1//EN" "http://www.w3.org/Graphics/SVG/1.1/DTD/svg11.dtd">
<svg width="200" height="50" viewBox="0 0 2422 598" version="1.1" xmlns="http://www.w3.org/2000/svg" xmlns:xlink="http://www.w3.org/1999/xlink" xml:space="preserve" xmlns:serif="http://www.serif.com/" style="fill-rule:evenodd;clip-rule:evenodd;stroke-linejoin:round;stroke-miterlimit:2;">
    <g transform="matrix(1,0,0,1,-2833.330417,-1951.455)">
        <g transform="matrix(4.166667,0,0,4.166667,0,0)">
            <g transform="matrix(1,0,0,1,751.6503,592.2482)">
                <path d="M0,-123.899C-18.966,-123.899 -36.207,-116.527 -49.024,-104.496L-49.024,-123.899L-71.651,-123.899L-71.651,-52.363L-71.649,-52.363C-71.649,-52.324 -71.651,-52.286 -71.651,-52.248C-71.651,-31.642 -62.949,-13.071 -49.024,0L-49.024,-52.363L-49.023,-52.363C-48.961,-79.385 -27.037,-101.272 0,-101.272C15.613,-101.272 29.51,-93.965 38.488,-82.595L54.569,-98.676C41.427,-114.108 21.858,-123.899 0,-123.899" style="fill:rgb(203,250,27);fill-rule:nonzero;"/>
            </g>
            <g transform="matrix(1,0,0,1,795.377,593.9266)">
                <path d="M0,-76.085C3.38,-69.428 5.297,-61.904 5.297,-53.927C5.297,-26.851 -16.651,-4.902 -43.727,-4.902C-49.8,-4.902 -55.615,-6.01 -60.982,-8.029L-60.982,-57.241L-60.974,-57.241C-60.791,-65.602 -53.96,-72.325 -45.555,-72.325C-37.817,-72.325 -31.429,-66.622 -30.318,-59.194L-11.751,-77.761C-19.022,-87.501 -30.637,-93.809 -43.727,-93.809C-65.753,-93.809 -83.609,-75.953 -83.609,-53.927C-83.609,-53.888 -83.608,-53.851 -83.608,-53.812L-83.609,-53.812L-83.609,5.605C-72.208,13.258 -58.49,17.724 -43.727,17.724C-4.155,17.724 27.924,-14.355 27.924,-53.927C27.924,-68.193 23.753,-81.485 16.566,-92.651L0,-76.085Z" style="fill:rgb(203,250,27);fill-rule:nonzero;"/>
            </g>
            <g transform="matrix(0.24,0,0,0.24,646.003724,373.596455)">
                <text x="851.047px" y="787.025px" style="font-family:'RedHatDisplay-Black', 'Red Hat Display';font-weight:900;font-size:407.518px;fill:white;">BR CELL</text>
                <g transform="matrix(123.650417,0,0,123.650417,1780.402038,936.050189)">
                </g>
                <text x="874.044px" y="936.05px" style="font-family:'RedHatDisplay-SemiBold', 'Red Hat Display';font-weight:600;font-size:123.65px;fill:white;">b<tspan x="984.217px 1087.712px 1150.527px 1262.059px 1373.469px 1437.519px 1543.488px 1645.499px 1753.323px " y="936.05px 936.05px 936.05px 936.05px 936.05px 936.05px 936.05px 936.05px 936.05px ">y golevel</tspan></text>
            </g>
        </g>
    </g>
</svg>
